<svg width="20" height="20" viewBox="0 0 20 20" fill="none" xmlns="http://www.w3.org/2000/svg">
<path d="M10 2C11.5823 2 13.129 2.46919 14.4446 3.34824C15.7602 4.22729 16.7855 5.47672 17.391 6.93853C17.9965 8.40034 18.155 10.0089 17.8463 11.5607C17.5376 13.1126 16.7757 14.538 15.6569 15.6569C14.538 16.7757 13.1126 17.5376 11.5607 17.8463C10.0089 18.155 8.40034 17.9965 6.93854 17.391C5.47673 16.7855 4.2273 15.7602 3.34825 14.4446C2.4692 13.129 2 11.5822 2 10C2 7.87827 2.84286 5.84344 4.34315 4.34315C5.84344 2.84285 7.87827 2 10 2ZM10 0C8.02219 0 6.08879 0.58649 4.4443 1.6853C2.79981 2.78412 1.51809 4.3459 0.761209 6.17316C0.00433284 8.00043 -0.1937 10.0111 0.192152 11.9509C0.578004 13.8907 1.53041 15.6725 2.92894 17.0711C4.32746 18.4696 6.10929 19.422 8.0491 19.8079C9.98891 20.1937 11.9996 19.9957 13.8268 19.2388C15.6541 18.4819 17.2159 17.2002 18.3147 15.5557C19.4135 13.9112 20 11.9778 20 10C20 8.68678 19.7413 7.38642 19.2388 6.17316C18.7362 4.95991 17.9997 3.85752 17.0711 2.92893C16.1425 2.00035 15.0401 1.26375 13.8268 0.761205C12.6136 0.258658 11.3132 0 10 0ZM13 8H7C6.90129 7.99942 6.80461 8.02807 6.72216 8.08235C6.6397 8.13663 6.57516 8.21409 6.53666 8.30499C6.49816 8.39589 6.48743 8.49615 6.50582 8.59314C6.52421 8.69013 6.5709 8.7795 6.64 8.85L9.64 11.85C9.73515 11.9422 9.86248 11.9938 9.995 11.9938C10.1275 11.9938 10.2549 11.9422 10.35 11.85L13.35 8.85C13.4185 8.78011 13.465 8.69165 13.4837 8.59559C13.5025 8.49952 13.4926 8.40008 13.4553 8.30958C13.4181 8.21907 13.355 8.1415 13.2741 8.08647C13.1932 8.03144 13.0979 8.00137 13 8Z" fill="#4A0A52"/>
</svg>
