<svg width="24" height="24" viewBox="0 0 24 24" fill="none" xmlns="http://www.w3.org/2000/svg">
<path d="M24 3.47669e-06V24H5.49317e-06L0 0L24 3.47669e-06Z" fill="#4A0A52"/>
<path d="M8.87845 4L11.8086 12.2481H11.8406L14.6215 4H18.5V15.9898H15.9215V7.49703H15.8895L12.8208 16H10.6898L7.6105 7.57859H7.57853V15.9898H5V4H8.87845Z" fill="white"/>
<path d="M22 13.6V16H19.5V13.6H22Z" fill="#00FFC2"/>
<path d="M6.0898 20.06C6.42046 20.06 6.69646 19.9773 6.9178 19.812C7.14046 19.6453 7.29646 19.4213 7.3858 19.14L6.8998 19.006C6.8438 19.1927 6.74846 19.3393 6.6138 19.446C6.47913 19.5527 6.30446 19.606 6.0898 19.606C5.80046 19.606 5.58246 19.5107 5.4358 19.32C5.29046 19.128 5.2178 18.8747 5.2178 18.56C5.21913 18.2453 5.29246 17.9927 5.4378 17.802C5.58313 17.61 5.80046 17.514 6.0898 17.514C6.30446 17.514 6.47913 17.5673 6.6138 17.674C6.74846 17.7807 6.8438 17.9273 6.8998 18.114L7.3858 17.98C7.29646 17.6973 7.14046 17.4733 6.9178 17.308C6.69646 17.1427 6.42046 17.06 6.0898 17.06C5.80313 17.06 5.55646 17.1233 5.3498 17.25C5.14446 17.3753 4.98646 17.5507 4.8758 17.776C4.76646 18 4.7118 18.2613 4.7118 18.56C4.7118 18.8573 4.76646 19.1187 4.8758 19.344C4.98646 19.5693 5.14446 19.7453 5.3498 19.872C5.55646 19.9973 5.80313 20.06 6.0898 20.06ZM9.04292 20.06C9.33092 20.06 9.57759 19.9973 9.78292 19.872C9.98959 19.7453 10.1476 19.5693 10.2569 19.344C10.3676 19.1187 10.4229 18.8573 10.4229 18.56C10.4229 18.2613 10.3676 18 10.2569 17.776C10.1476 17.5507 9.98959 17.3753 9.78292 17.25C9.57759 17.1233 9.33092 17.06 9.04292 17.06C8.75626 17.06 8.50959 17.1233 8.30292 17.25C8.09759 17.3753 7.93959 17.5507 7.82892 17.776C7.71959 18 7.66492 18.2613 7.66492 18.56C7.66492 18.8573 7.71959 19.1187 7.82892 19.344C7.93959 19.5693 8.09759 19.7453 8.30292 19.872C8.50959 19.9973 8.75626 20.06 9.04292 20.06ZM9.04292 19.606C8.75359 19.602 8.53626 19.5053 8.39092 19.316C8.24559 19.1267 8.17359 18.8747 8.17492 18.56C8.17626 18.3493 8.20892 18.1653 8.27292 18.008C8.33692 17.8507 8.43292 17.7287 8.56092 17.642C8.68892 17.554 8.84959 17.5113 9.04292 17.514C9.33359 17.518 9.55092 17.6147 9.69492 17.804C9.84026 17.9933 9.91292 18.2453 9.91292 18.56C9.91292 18.7693 9.88026 18.9533 9.81492 19.112C9.75092 19.2693 9.65426 19.3913 9.52492 19.478C9.39692 19.5647 9.23626 19.6073 9.04292 19.606ZM10.821 20H11.303V18.8H12.315V18.32H11.303V17.602H12.555V17.12H10.821V20ZM12.9148 20H13.3968V18.8H14.4088V18.32H13.3968V17.602H14.6488V17.12H12.9148V20ZM15.0085 20H16.8685V19.548H15.4905V18.734H16.6285V18.282H15.4905V17.572H16.8685V17.12H15.0085V20ZM17.3484 20H19.2084V19.548H17.8304V18.734H18.9684V18.282H17.8304V17.572H19.2084V17.12H17.3484V20Z" fill="white"/>
</svg>
