<svg width="24" height="24" viewBox="0 0 24 24" fill="none" xmlns="http://www.w3.org/2000/svg">
<path d="M14.7389 14.7389C15.7042 14.7389 16.6299 14.3554 17.3125 13.6728C17.9951 12.9902 18.3785 12.0645 18.3785 11.0992V5.63967C18.3785 4.67437 17.9951 3.74861 17.3125 3.06604C16.6299 2.38346 15.7042 2 14.7389 2H5.63967C4.67437 2 3.74861 2.38346 3.06604 3.06604C2.38346 3.74861 2 4.67437 2 5.63967V17.0136C2 17.1343 2.04793 17.25 2.13325 17.3354C2.21858 17.4207 2.3343 17.4686 2.45496 17.4686C2.51447 17.4683 2.5733 17.456 2.628 17.4326C2.68269 17.4091 2.73214 17.375 2.77343 17.3321L4.59327 15.5123C4.85199 15.2604 5.15812 15.0623 5.49393 14.9295C5.82974 14.7968 6.18856 14.732 6.54959 14.7389H14.7389ZM20.1984 5.63967V12.919C20.1984 13.8843 19.8149 14.8101 19.1323 15.4927C18.4498 16.1752 17.524 16.5587 16.5587 16.5587H5.63967C5.63967 17.0413 5.8314 17.5042 6.17269 17.8455C6.51398 18.1868 6.97686 18.3785 7.45951 18.3785H17.4686C17.8285 18.3776 18.185 18.4479 18.5176 18.5854C18.8503 18.7228 19.1524 18.9246 19.4067 19.1793L21.2266 20.9991C21.2679 21.0419 21.3173 21.0761 21.372 21.0995C21.4267 21.123 21.4855 21.1352 21.545 21.1356C21.6657 21.1356 21.7814 21.0876 21.8667 21.0023C21.9521 20.917 22 20.8013 22 20.6806V7.45951C22 6.97999 21.8108 6.51985 21.4734 6.17908C21.1361 5.83831 20.6779 5.64447 20.1984 5.63967Z" fill="#16061C"/>
</svg>
