<svg width="20" height="20" viewBox="0 0 20 20" fill="none" xmlns="http://www.w3.org/2000/svg">
<path d="M16.666 17.4984C16.6663 17.6473 16.6267 17.7936 16.5513 17.9219C16.4759 18.0503 16.3675 18.1562 16.2374 18.2285C16.1073 18.3008 15.9601 18.3369 15.8113 18.3331C15.6624 18.3292 15.5174 18.2856 15.3911 18.2067L10.4416 15.107C10.3092 15.0242 10.1562 14.9804 9.99998 14.9804C9.84382 14.9804 9.69079 15.0242 9.55836 15.107L4.60886 18.2067C4.48261 18.2856 4.33752 18.3292 4.18869 18.3331C4.03986 18.3369 3.89272 18.3008 3.76257 18.2285C3.63243 18.1562 3.52403 18.0503 3.44866 17.9219C3.37328 17.7936 3.33369 17.6473 3.33399 17.4984V3.33319C3.33399 2.8912 3.50956 2.46732 3.82209 2.15479C4.13462 1.84226 4.5585 1.66669 5.00049 1.66669H14.9995C15.4415 1.66669 15.8653 1.84226 16.1779 2.15479C16.4904 2.46732 16.666 2.8912 16.666 3.33319V17.4984Z" fill="#4A0A52"/>
</svg>
