<svg width="20" height="20" viewBox="0 0 20 20" fill="none" xmlns="http://www.w3.org/2000/svg">
<path d="M9.07342 2.59261V6.29632C9.07342 6.54189 8.97587 6.7774 8.80223 6.95105C8.62858 7.12469 8.39307 7.22224 8.1475 7.22224H2.59194C2.34637 7.22224 2.11086 7.12469 1.93721 6.95105C1.76357 6.7774 1.66602 6.54189 1.66602 6.29632V2.59261C1.66602 2.34704 1.76357 2.11153 1.93721 1.93788C2.11086 1.76424 2.34637 1.66669 2.59194 1.66669H8.1475C8.39307 1.66669 8.62858 1.76424 8.80223 1.93788C8.97587 2.11153 9.07342 2.34704 9.07342 2.59261ZM8.1475 9.07409H2.59194C2.34637 9.07409 2.11086 9.17165 1.93721 9.34529C1.76357 9.51894 1.66602 9.75445 1.66602 10V17.4074C1.66602 17.653 1.76357 17.8885 1.93721 18.0622C2.11086 18.2358 2.34637 18.3334 2.59194 18.3334H8.1475C8.39307 18.3334 8.62858 18.2358 8.80223 18.0622C8.97587 17.8885 9.07342 17.653 9.07342 17.4074V10C9.07342 9.75445 8.97587 9.51894 8.80223 9.34529C8.62858 9.17165 8.39307 9.07409 8.1475 9.07409ZM17.4068 12.7778H11.8512C11.6056 12.7778 11.3701 12.8754 11.1965 13.049C11.0228 13.2226 10.9253 13.4582 10.9253 13.7037V17.4074C10.9253 17.653 11.0228 17.8885 11.1965 18.0622C11.3701 18.2358 11.6056 18.3334 11.8512 18.3334H17.4068C17.6523 18.3334 17.8878 18.2358 18.0615 18.0622C18.2351 17.8885 18.3327 17.653 18.3327 17.4074V13.7037C18.3327 13.4582 18.2351 13.2226 18.0615 13.049C17.8878 12.8754 17.6523 12.7778 17.4068 12.7778ZM17.4068 1.66669H11.8512C11.6056 1.66669 11.3701 1.76424 11.1965 1.93788C11.0228 2.11153 10.9253 2.34704 10.9253 2.59261V10C10.9253 10.2456 11.0228 10.4811 11.1965 10.6547C11.3701 10.8284 11.6056 10.9259 11.8512 10.9259H17.4068C17.6523 10.9259 17.8878 10.8284 18.0615 10.6547C18.2351 10.4811 18.3327 10.2456 18.3327 10V2.59261C18.3327 2.34704 18.2351 2.11153 18.0615 1.93788C17.8878 1.76424 17.6523 1.66669 17.4068 1.66669V1.66669Z" fill="url(#paint0_radial)"/>
<defs>
<radialGradient id="paint0_radial" cx="0" cy="0" r="1" gradientUnits="userSpaceOnUse" gradientTransform="translate(9.99935 1.66669) rotate(90) scale(8.92593)">
<stop stop-color="#4A195B"/>
<stop offset="1" stop-color="#320E3F"/>
</radialGradient>
</defs>
</svg>
