<svg width="20" height="20" viewBox="0 0 20 20" fill="none" xmlns="http://www.w3.org/2000/svg">
<path d="M2.50065 3.33331H7.50065C7.97457 3.33495 8.44269 3.43763 8.87379 3.6345C9.30489 3.83137 9.68905 4.1179 10.0007 4.47498C10.3123 4.1179 10.6964 3.83137 11.1275 3.6345C11.5586 3.43763 12.0267 3.33495 12.5007 3.33331H17.5007C17.7217 3.33331 17.9336 3.42111 18.0899 3.57739C18.2462 3.73367 18.334 3.94563 18.334 4.16665V15C18.334 15.221 18.2462 15.433 18.0899 15.5892C17.9336 15.7455 17.7217 15.8333 17.5007 15.8333H12.8423C12.6237 15.8342 12.4142 15.921 12.259 16.075L11.909 16.425C11.7538 16.5789 11.5443 16.6657 11.3257 16.6666H8.67565C8.45703 16.6657 8.24753 16.5789 8.09232 16.425L7.74232 16.075C7.5871 15.921 7.3776 15.8342 7.15898 15.8333H2.50065C2.27964 15.8333 2.06767 15.7455 1.91139 15.5892C1.75511 15.433 1.66732 15.221 1.66732 15V4.16665C1.66732 3.94563 1.75511 3.73367 1.91139 3.57739C2.06767 3.42111 2.27964 3.33331 2.50065 3.33331V3.33331ZM10.834 13.7833C11.3404 13.4896 11.9152 13.3343 12.5007 13.3333H16.6673V4.99998H12.5007C12.0586 4.99998 11.6347 5.17557 11.3221 5.48813C11.0096 5.80069 10.834 6.22462 10.834 6.66665V13.7833ZM3.33398 13.3333H7.50065C8.08608 13.3343 8.66092 13.4896 9.16732 13.7833V6.66665C9.16732 6.22462 8.99172 5.80069 8.67916 5.48813C8.3666 5.17557 7.94268 4.99998 7.50065 4.99998H3.33398V13.3333Z" fill="#4A0A52"/>
</svg>
