<svg width="20" height="20" viewBox="0 0 20 20" fill="none" xmlns="http://www.w3.org/2000/svg">
<path d="M5.3995 10.4347C5.3301 10.5036 5.27501 10.5855 5.23741 10.6757C5.19982 10.766 5.18046 10.8628 5.18046 10.9605C5.18046 11.0583 5.19982 11.1551 5.23741 11.2453C5.27501 11.3355 5.3301 11.4174 5.3995 11.4863L9.24277 15.3221C9.48686 15.5663 9.76346 15.7756 10.0647 15.9442L12.3529 17.2179C13.0125 17.5828 13.754 17.7739 14.5078 17.7732C15.0968 17.7727 15.6615 17.5383 16.0777 17.1216L17.1218 16.1219C17.3463 15.8815 17.5198 15.5981 17.6318 15.2888C17.7438 14.9796 17.792 14.6508 17.7735 14.3224V11.2863C17.7735 9.87936 16.759 8.88707 16.4924 7.40604L16.1592 5.48811C16.1511 5.43987 16.1336 5.39371 16.1076 5.35229C16.0816 5.31087 16.0476 5.27501 16.0077 5.24679C15.9678 5.21856 15.9226 5.19852 15.8749 5.18783C15.8272 5.17714 15.7778 5.17601 15.7297 5.1845C15.4752 5.22779 15.2439 5.35894 15.0762 5.55513C14.9084 5.75132 14.8147 6.00012 14.8114 6.25824V9.37581L9.35385 3.91822C9.21511 3.7803 9.02742 3.70288 8.83179 3.70288C8.63615 3.70288 8.44847 3.7803 8.30972 3.91822C8.24032 3.98706 8.18523 4.06896 8.14763 4.1592C8.11004 4.24944 8.09068 4.34623 8.09068 4.44398C8.09068 4.54174 8.11004 4.63853 8.14763 4.72877C8.18523 4.81901 8.24032 4.90091 8.30972 4.96975L11.5976 8.25023C11.6673 8.31995 11.7065 8.41451 11.7065 8.51311C11.7065 8.61171 11.6673 8.70627 11.5976 8.77599C11.5279 8.84571 11.4333 8.88488 11.3347 8.88488C11.2361 8.88488 11.1416 8.84571 11.0718 8.77599L7.13971 4.84386C7.07087 4.77445 6.98897 4.71936 6.89873 4.68177C6.80849 4.64417 6.7117 4.62482 6.61395 4.62482C6.51619 4.62482 6.4194 4.64417 6.32916 4.68177C6.23892 4.71936 6.15702 4.77445 6.08818 4.84386C5.95026 4.98261 5.87284 5.17029 5.87284 5.36592C5.87284 5.56156 5.95026 5.74924 6.08818 5.88799L10.0203 9.82012C10.055 9.85454 10.0826 9.89549 10.1014 9.94061C10.1202 9.98573 10.1298 10.0341 10.1298 10.083C10.1298 10.1319 10.1202 10.1803 10.1014 10.2254C10.0826 10.2705 10.055 10.3115 10.0203 10.3459C9.9511 10.4137 9.85805 10.4517 9.76113 10.4517C9.66422 10.4517 9.57116 10.4137 9.50195 10.3459L6.45103 7.29496C6.38219 7.22556 6.30029 7.17047 6.21005 7.13287C6.11981 7.09528 6.02303 7.07592 5.92527 7.07592C5.82751 7.07592 5.73072 7.09528 5.64048 7.13287C5.55025 7.17047 5.46834 7.22556 5.3995 7.29496C5.26158 7.43371 5.18417 7.62139 5.18417 7.81703C5.18417 8.01266 5.26158 8.20035 5.3995 8.33909L8.45042 11.39C8.48513 11.4244 8.51267 11.4654 8.53147 11.5105C8.55027 11.5556 8.55994 11.604 8.55994 11.6529C8.55994 11.7018 8.55027 11.7502 8.53147 11.7953C8.51267 11.8404 8.48513 11.8814 8.45042 11.9158C8.38121 11.9836 8.28816 12.0216 8.19124 12.0216C8.09433 12.0216 8.00127 11.9836 7.93206 11.9158L6.45103 10.4347C6.38219 10.3653 6.30029 10.3102 6.21005 10.2727C6.11981 10.2351 6.02303 10.2157 5.92527 10.2157C5.82751 10.2157 5.73072 10.2351 5.64048 10.2727C5.55025 10.3102 5.46834 10.3653 5.3995 10.4347ZM3.05948 13.0932C3.09496 13.0562 3.13748 13.0267 3.18452 13.0063C3.23157 12.986 3.28221 12.9752 3.33347 12.9747H4.07398C4.16967 12.9746 4.26167 13.0116 4.33069 13.0779C4.39972 13.1441 4.44041 13.2345 4.44424 13.3302C4.526 14.0877 4.86435 14.7945 5.40314 15.3333C5.94192 15.8721 6.64874 16.2105 7.4063 16.2922C7.4986 16.2997 7.58453 16.3423 7.64648 16.4111C7.70844 16.48 7.74173 16.5699 7.73953 16.6625V17.403C7.73901 17.4542 7.72826 17.5049 7.70792 17.5519C7.68757 17.599 7.65804 17.6415 7.62105 17.677C7.54351 17.7447 7.44245 17.7793 7.33965 17.7732C6.20854 17.674 5.14891 17.1781 4.34806 16.3732C3.54721 15.5683 3.05669 14.5062 2.96321 13.3746C2.95714 13.2718 2.99172 13.1707 3.05948 13.0932V13.0932ZM13.5896 5.1845C13.0969 4.76871 12.4906 4.5107 11.8494 4.44398C11.7571 4.43645 11.6711 4.39391 11.6092 4.32507C11.5472 4.25623 11.514 4.16631 11.5162 4.07373V3.33321C11.5167 3.28196 11.5274 3.23132 11.5478 3.18427C11.5681 3.13722 11.5976 3.09471 11.6346 3.05922C11.7065 2.99676 11.7986 2.96254 11.8938 2.96296C12.8828 3.04217 13.8224 3.42787 14.5819 4.06632C14.1496 4.33483 13.8048 4.72336 13.5896 5.1845Z" fill="#4A0A52"/>
</svg>
