<svg width="16" height="18" viewBox="0 0 16 18" fill="none" xmlns="http://www.w3.org/2000/svg">
<path d="M2.16667 4.00002V8.16669H0.916667C0.80616 8.16669 0.700179 8.21059 0.622039 8.28873C0.543899 8.36687 0.5 8.47285 0.5 8.58335V9.41669C0.5 9.52719 0.543899 9.63318 0.622039 9.71132C0.700179 9.78946 0.80616 9.83335 0.916667 9.83335H2.16667V14H0.916667C0.80616 14 0.700179 14.0439 0.622039 14.1221C0.543899 14.2002 0.5 14.3062 0.5 14.4167V15.25C0.5 15.3605 0.543899 15.4665 0.622039 15.5446C0.700179 15.6228 0.80616 15.6667 0.916667 15.6667H2.16667C2.16667 16.1087 2.34226 16.5326 2.65482 16.8452C2.96738 17.1578 3.39131 17.3334 3.83333 17.3334H13.8333C14.2754 17.3334 14.6993 17.1578 15.0118 16.8452C15.3244 16.5326 15.5 16.1087 15.5 15.6667V2.33335C15.5 1.89133 15.3244 1.4674 15.0118 1.15484C14.6993 0.842282 14.2754 0.666687 13.8333 0.666687H3.83333C3.39131 0.666687 2.96738 0.842282 2.65482 1.15484C2.34226 1.4674 2.16667 1.89133 2.16667 2.33335H0.916667C0.80616 2.33335 0.700179 2.37725 0.622039 2.45539C0.543899 2.53353 0.5 2.63951 0.5 2.75002V3.58335C0.5 3.69386 0.543899 3.79984 0.622039 3.87798C0.700179 3.95612 0.80616 4.00002 0.916667 4.00002H2.16667ZM9.66667 9.83335C9.66667 10.163 9.56892 10.4852 9.38578 10.7593C9.20265 11.0334 8.94235 11.247 8.63781 11.3732C8.33326 11.4993 7.99815 11.5323 7.67485 11.468C7.35155 11.4037 7.05458 11.245 6.82149 11.0119C6.5884 10.7788 6.42967 10.4818 6.36536 10.1585C6.30105 9.8352 6.33405 9.50009 6.4602 9.19555C6.58635 8.89101 6.79997 8.63071 7.07405 8.44757C7.34813 8.26444 7.67036 8.16669 8 8.16669C8.44203 8.16669 8.86595 8.34228 9.17851 8.65484C9.49107 8.9674 9.66667 9.39133 9.66667 9.83335ZM4.70833 14.2334L5.31667 13.025C5.42028 12.8175 5.57961 12.6428 5.77683 12.5207C5.97404 12.3985 6.20135 12.3337 6.43333 12.3334H9.56667C9.79865 12.3337 10.026 12.3985 10.2232 12.5207C10.4204 12.6428 10.5797 12.8175 10.6833 13.025L11.3333 14.2334C11.3645 14.2969 11.3789 14.3674 11.3753 14.4381C11.3716 14.5089 11.35 14.5775 11.3125 14.6375C11.275 14.6976 11.2228 14.7471 11.1608 14.7813C11.0988 14.8156 11.0291 14.8335 10.9583 14.8334H5.125C5.05075 14.8412 4.97576 14.8289 4.90788 14.7978C4.84 14.7667 4.78172 14.718 4.73913 14.6566C4.69654 14.5953 4.67122 14.5237 4.6658 14.4492C4.66038 14.3747 4.67507 14.3002 4.70833 14.2334V14.2334Z" fill="#4A0A52"/>
</svg>
