<svg width="20" height="20" viewBox="0 0 20 20" fill="none" xmlns="http://www.w3.org/2000/svg">
<path d="M9.99935 1.66669C8.35118 1.66669 6.74001 2.15543 5.3696 3.07111C3.99919 3.98679 2.93109 5.28827 2.30036 6.81099C1.66963 8.33371 1.5046 10.0093 1.82614 11.6258C2.14769 13.2423 2.94136 14.7271 4.1068 15.8926C5.27223 17.058 6.75709 17.8517 8.3736 18.1732C9.99011 18.4948 11.6657 18.3297 13.1884 17.699C14.7111 17.0683 16.0126 16.0002 16.9283 14.6298C17.8439 13.2594 18.3327 11.6482 18.3327 10C18.3327 8.90567 18.1171 7.82204 17.6983 6.81099C17.2796 5.79995 16.6657 4.88129 15.8919 4.10746C15.1181 3.33364 14.1994 2.71981 13.1884 2.30102C12.1773 1.88224 11.0937 1.66669 9.99935 1.66669V1.66669ZM13.7244 7.01669L12.0577 11.125C11.9739 11.329 11.8505 11.5143 11.6945 11.6702C11.5386 11.8261 11.3533 11.9496 11.1494 12.0334L7.04102 13.7C6.96547 13.7316 6.88216 13.7398 6.80191 13.7234C6.72166 13.7071 6.64818 13.667 6.59102 13.6084L6.39102 13.4084C6.33238 13.3512 6.29228 13.2777 6.27593 13.1975C6.25958 13.1172 6.26774 13.0339 6.29935 12.9584L7.96602 8.85002C8.04981 8.64606 8.17324 8.46075 8.32916 8.30483C8.48508 8.14891 8.67039 8.02548 8.87435 7.94169L12.9827 6.27502C13.0582 6.24341 13.1415 6.23525 13.2218 6.2516C13.302 6.26794 13.3755 6.30804 13.4327 6.36669L13.6327 6.56669C13.6913 6.62385 13.7314 6.69733 13.7478 6.77758C13.7641 6.85783 13.756 6.94114 13.7244 7.01669V7.01669Z" fill="#9B51E0"/>
</svg>
