<svg width="24" height="24" viewBox="0 0 24 24" fill="none" xmlns="http://www.w3.org/2000/svg">
<path d="M19.9996 5.89L18.1896 12.65C18.1016 12.9762 18.0546 13.3122 18.0496 13.65V22C18.0496 22.2652 17.9442 22.5196 17.7567 22.7071C17.5691 22.8946 17.3148 23 17.0496 23H10.9996C10.7344 23 10.48 22.8946 10.2925 22.7071C10.1049 22.5196 9.99958 22.2652 9.99958 22V21.89C9.99925 21.6204 9.92674 21.3558 9.78958 21.1236C9.65241 20.8915 9.4556 20.7004 9.21958 20.57L5.99958 18.83C5.52028 18.5671 5.09996 18.2087 4.76457 17.777C4.42918 17.3453 4.18584 16.8494 4.04958 16.32L3.04958 12.32C2.98364 12.0799 3.00962 11.8239 3.12243 11.602C3.23524 11.3801 3.42678 11.2082 3.65958 11.12C3.91751 11.0378 4.18944 11.0087 4.45892 11.0347C4.72839 11.0607 4.98979 11.1411 5.22727 11.271C5.46476 11.401 5.67339 11.5778 5.84052 11.7908C6.00765 12.0037 6.1298 12.2484 6.19958 12.51L6.49958 13.62C6.54567 13.7917 6.63667 13.9479 6.76323 14.0727C6.88978 14.1975 7.0473 14.2863 7.21958 14.33L8.40958 14.63C8.85988 14.7436 9.33568 14.697 9.75534 14.4981C10.175 14.2992 10.5124 13.9605 10.7096 13.54L10.9496 13.03C11.162 12.5766 11.1967 12.0601 11.0467 11.5824C10.8967 11.1047 10.573 10.7006 10.1396 10.45L9.81958 10.27C9.59546 10.1252 9.34463 10.0267 9.08187 9.98037C8.81911 9.934 8.54972 9.94067 8.28958 10L4.88958 11C4.69916 11.0512 4.50052 11.0644 4.305 11.0389C4.10948 11.0133 3.92091 10.9495 3.75005 10.8511C3.57919 10.7526 3.42939 10.6215 3.3092 10.4652C3.18901 10.3089 3.10079 10.1304 3.04958 9.94C2.99836 9.74959 2.98516 9.55095 3.01071 9.35542C3.03626 9.1599 3.10007 8.97133 3.1985 8.80047C3.29693 8.62961 3.42805 8.47981 3.58438 8.35962C3.7407 8.23944 3.91916 8.15122 4.10958 8.1L8.30958 6.97C8.69067 6.8676 9.08823 6.84138 9.47947 6.89286C9.87071 6.94434 10.2479 7.0725 10.5896 7.27L11.2496 7.66C11.3062 7.70115 11.3707 7.72997 11.4392 7.74459C11.5076 7.75921 11.5783 7.75931 11.6468 7.74489C11.7152 7.73046 11.7799 7.70183 11.8366 7.66084C11.8933 7.61985 11.9408 7.56742 11.9759 7.50694C12.0111 7.44646 12.0332 7.37927 12.0407 7.30972C12.0483 7.24017 12.0412 7.1698 12.0199 7.10317C11.9985 7.03654 11.9634 6.97513 11.9169 6.92291C11.8703 6.87069 11.8133 6.82882 11.7496 6.8L10.0996 5.8L9.08958 3C9.01293 2.79426 8.98237 2.57421 9.00007 2.35537C9.01777 2.13653 9.0833 1.92424 9.19202 1.73349C9.30075 1.54275 9.45002 1.3782 9.6293 1.25146C9.80858 1.12472 10.0135 1.03888 10.2296 1C10.5861 0.944837 10.9508 1.01415 11.2622 1.19627C11.5736 1.37839 11.8128 1.66222 11.9396 2L14.3396 8.61C14.3873 8.7311 14.4804 8.82882 14.599 8.88239C14.7176 8.93596 14.8524 8.94116 14.9748 8.89689C15.0972 8.85262 15.1975 8.76236 15.2545 8.6453C15.3114 8.52824 15.3204 8.39361 15.2796 8.27L13.9996 4.82V2.5C13.9996 2.10218 14.1576 1.72065 14.4389 1.43934C14.7202 1.15804 15.1018 1 15.4996 1C15.8974 1 16.2789 1.15804 16.5602 1.43934C16.8415 1.72065 16.9996 2.10218 16.9996 2.5V7.5C16.9996 7.63261 17.0523 7.75979 17.146 7.85356C17.2398 7.94732 17.367 8 17.4996 8C17.6322 8 17.7594 7.94732 17.8531 7.85356C17.9469 7.75979 17.9996 7.63261 17.9996 7.5V4.09C18.2893 3.99933 18.5998 3.99933 18.8896 4.09C19.2734 4.18495 19.6047 4.42667 19.8123 4.76325C20.0198 5.09982 20.0871 5.50438 19.9996 5.89Z" fill="black"/>
</svg>
