<svg width="20" height="20" viewBox="0 0 20 20" fill="none" xmlns="http://www.w3.org/2000/svg">
<path d="M8.33348 7.91782C8.33348 7.50565 8.21126 7.10274 7.98227 6.76004C7.75328 6.41733 7.42781 6.15022 7.04701 5.99249C6.66622 5.83476 6.2472 5.79349 5.84295 5.8739C5.4387 5.95431 5.06738 6.15279 4.77593 6.44424C4.48448 6.73569 4.286 7.10701 4.20559 7.51126C4.12518 7.91551 4.16645 8.33453 4.32418 8.71532C4.48192 9.09612 4.74902 9.42159 5.09173 9.65058C5.43443 9.87957 5.83735 10.0018 6.24952 10.0018C6.80222 10.0018 7.33228 9.78223 7.7231 9.39141C8.11392 9.00059 8.33348 8.47053 8.33348 7.91782V7.91782ZM12.5014 9.1682C12.0068 9.1682 11.5233 9.02153 11.1121 8.74675C10.7008 8.47196 10.3803 8.0814 10.191 7.62444C10.0017 7.16749 9.95221 6.66467 10.0487 6.17957C10.1452 5.69447 10.3834 5.24888 10.7331 4.89914C11.0828 4.54941 11.5284 4.31123 12.0135 4.21474C12.4986 4.11825 13.0015 4.16777 13.4584 4.35705C13.9154 4.54632 14.3059 4.86685 14.5807 5.2781C14.8555 5.68935 15.0022 6.17284 15.0022 6.66745C15.0022 7.33069 14.7387 7.96676 14.2697 8.43575C13.8007 8.90473 13.1646 9.1682 12.5014 9.1682ZM7.95837 12.2191C8.1663 11.8026 8.48635 11.4524 8.88251 11.208C9.27867 10.9635 9.7352 10.8345 10.2007 10.8354H14.8021C15.2676 10.8345 15.7241 10.9635 16.1203 11.208C16.5165 11.4524 16.8365 11.8026 17.0444 12.2191L18.2448 14.6282C18.3088 14.7551 18.3392 14.8962 18.3333 15.0382C18.3273 15.1802 18.2852 15.3183 18.2108 15.4394C18.1365 15.5605 18.0324 15.6606 17.9085 15.7301C17.7846 15.7997 17.645 15.8365 17.5029 15.8369H7.49989C7.3578 15.8365 7.21817 15.7997 7.09427 15.7301C6.97037 15.6606 6.86632 15.5605 6.79198 15.4394C6.71765 15.3183 6.67551 15.1802 6.66956 15.0382C6.66361 14.8962 6.69406 14.7551 6.758 14.6282L7.95837 12.2191ZM1.75649 14.6282L2.5484 13.0444C2.75685 12.6307 3.0761 12.2831 3.47056 12.0402C3.86502 11.7973 4.31918 11.6688 4.78241 11.669H6.37455L5.26588 13.8863C5.11514 14.1864 5.02638 14.5137 5.0049 14.8489C4.98342 15.184 5.02965 15.52 5.14085 15.8369H2.49838C2.35628 15.8365 2.21666 15.7997 2.09276 15.7301C1.96886 15.6606 1.8648 15.5605 1.79047 15.4394C1.71614 15.3183 1.674 15.1802 1.66805 15.0382C1.6621 14.8962 1.69255 14.7551 1.75649 14.6282V14.6282Z" fill="#4A0A52"/>
</svg>
