<svg width="20" height="20" viewBox="0 0 20 20" fill="none" xmlns="http://www.w3.org/2000/svg">
<path d="M14.259 8.73528V9.41083C14.259 9.46092 14.2479 9.51039 14.2264 9.55565C14.205 9.60091 14.1738 9.64083 14.135 9.67251C14.0962 9.7042 14.0509 9.72686 14.0023 9.73885C13.9537 9.75084 13.9031 9.75186 13.8541 9.74185L12.4099 9.45136C11.9661 9.35724 11.5654 9.11992 11.2694 8.77582L10.5945 8.01921L10.0479 11.1875L11.0264 12.1198C11.2184 12.3032 11.3541 12.5375 11.4179 12.7953L12.2749 16.9094C12.2863 16.9586 12.2862 17.0098 12.2747 17.059C12.2633 17.1081 12.2407 17.1541 12.2088 17.1932C12.1769 17.2323 12.1365 17.2636 12.0906 17.2847C12.0448 17.3057 11.9947 17.316 11.9442 17.3147H11.2694C11.1913 17.316 11.1152 17.2896 11.0547 17.2402C10.9941 17.1907 10.953 17.1214 10.9387 17.0445L10.1694 13.3087C10.142 13.1688 10.0712 13.0411 9.96692 12.9439L7.71966 10.8227C7.63827 10.7461 7.57716 10.6504 7.54182 10.5443C7.50649 10.4382 7.49803 10.3249 7.5172 10.2147L7.94911 7.70845L7.09879 8.27591C6.9644 8.3649 6.86626 8.49909 6.8221 8.65422L6.33621 10.3633C6.31577 10.4335 6.27314 10.4951 6.21474 10.539C6.15633 10.5828 6.08529 10.6065 6.01228 10.6065H5.33743C5.28504 10.6065 5.23338 10.5943 5.18652 10.5709C5.13967 10.5474 5.09892 10.5134 5.06749 10.4714C5.03606 10.4295 5.01481 10.3808 5.00544 10.3292C4.99607 10.2776 4.99883 10.2245 5.0135 10.1742L5.59387 8.03947C5.6856 7.72714 5.8869 7.45846 6.16075 7.28286L7.42272 6.43843C7.97515 6.07257 8.62293 5.87757 9.28532 5.87773H9.62949C9.92359 5.87756 10.2142 5.94154 10.4811 6.0652C10.748 6.18886 10.9847 6.36925 11.1749 6.5938L12.3019 7.90436C12.4003 8.02253 12.536 8.10356 12.6866 8.13405L13.989 8.39076C14.0676 8.40674 14.1379 8.45018 14.1873 8.51331C14.2368 8.57643 14.2622 8.65512 14.259 8.73528ZM7.79389 12.5251V12.5994C7.77354 12.7219 7.71983 12.8365 7.63868 12.9304L5.79633 15.0043C5.7345 15.0675 5.69987 15.1524 5.69987 15.2408C5.69987 15.3292 5.7345 15.4141 5.79633 15.4772L6.30922 15.9298C6.3422 15.9592 6.38072 15.9817 6.42251 15.9959C6.46429 16.0101 6.5085 16.0158 6.55253 16.0127C6.59656 16.0095 6.63951 15.9976 6.67885 15.9776C6.71819 15.9575 6.75313 15.9298 6.78161 15.8961L8.73194 13.6803C8.77157 13.6383 8.80768 13.5931 8.83992 13.5452L7.79389 12.5251ZM10.2099 5.20218C10.4768 5.20218 10.7378 5.12294 10.9597 4.97448C11.1817 4.82602 11.3547 4.61501 11.4568 4.36813C11.559 4.12125 11.5857 3.84959 11.5336 3.58751C11.4816 3.32542 11.353 3.08468 11.1643 2.89573C10.9755 2.70677 10.735 2.57809 10.4732 2.52596C10.2114 2.47383 9.93998 2.50059 9.69336 2.60285C9.44673 2.70511 9.23594 2.87828 9.08763 3.10047C8.93932 3.32265 8.86016 3.58387 8.86016 3.85109C8.86016 4.20942 9.00236 4.55308 9.25548 4.80646C9.5086 5.05984 9.8519 5.20218 10.2099 5.20218Z" fill="#4A0A52"/>
</svg>
