<svg width="20" height="20" viewBox="0 0 20 20" fill="none" xmlns="http://www.w3.org/2000/svg">
<path d="M10.109 1.79169C9.97637 1.7095 9.82334 1.66619 9.66732 1.66669H9.58398C9.47348 1.66669 9.3675 1.71059 9.28936 1.78873C9.21122 1.86687 9.16732 1.97285 9.16732 2.08336V5.93336C9.16709 6.02321 9.13782 6.11058 9.08387 6.18243C9.02993 6.25429 8.9542 6.30678 8.86799 6.33209C8.78177 6.35739 8.68969 6.35414 8.60547 6.32284C8.52125 6.29153 8.4494 6.23383 8.40065 6.15836C7.8334 5.53418 7.14043 5.03717 6.36732 4.70002C6.3119 4.67151 6.25047 4.65664 6.18815 4.65664C6.12583 4.65664 6.0644 4.67151 6.00898 4.70002C5.95404 4.73827 5.90935 4.78943 5.87883 4.84901C5.84831 4.90859 5.83291 4.97476 5.83398 5.04169C5.57565 7.40002 3.33398 8.37502 3.33398 11.7084C3.33398 13.4765 4.03636 15.1722 5.28661 16.4224C6.53685 17.6726 8.23254 18.375 10.0007 18.375C11.7688 18.375 13.4645 17.6726 14.7147 16.4224C15.9649 15.1722 16.6673 13.4765 16.6673 11.7084C16.6673 6.47502 12.1173 3.05002 10.109 1.79169ZM10.0007 16.6667C9.1166 16.6667 8.26875 16.3155 7.64363 15.6904C7.01851 15.0653 6.66732 14.2174 6.66732 13.3334C6.66732 11.0834 8.93398 9.78336 9.16732 8.51669C9.17747 8.46432 9.20734 8.41784 9.25075 8.38683C9.29416 8.35582 9.34781 8.34265 9.40065 8.35002C10.4915 8.67119 11.4558 9.32308 12.1604 10.2157C12.8649 11.1084 13.275 12.1977 13.334 13.3334C13.334 14.2174 12.9828 15.0653 12.3577 15.6904C11.7326 16.3155 10.8847 16.6667 10.0007 16.6667Z" fill="#4A0A52"/>
</svg>
