<svg width="15" height="15" viewBox="0 0 15 15" fill="none" xmlns="http://www.w3.org/2000/svg">
<path d="M13.6609 12.6649L10.8835 9.88757C10.7935 9.79548 10.6934 9.71395 10.5849 9.64455L9.89059 9.16546C10.584 8.30747 10.9649 7.23911 10.9707 6.13596C10.9765 5.03281 10.6069 3.96051 9.92252 3.09527C9.23818 2.23002 8.27985 1.62333 7.20503 1.37487C6.13021 1.12642 5.00284 1.251 4.0082 1.72814C3.01356 2.20527 2.21082 3.00657 1.73191 4.00036C1.25299 4.99414 1.1264 6.12129 1.37292 7.19655C1.61945 8.27181 2.22443 9.23123 3.08845 9.91712C3.95246 10.603 5.0241 10.9746 6.12726 10.9707C7.22991 10.9711 8.29989 10.5964 9.16153 9.9084L9.68228 10.6027C9.74405 10.6922 9.81377 10.7758 9.89059 10.8527L12.6679 13.6301C12.7002 13.6626 12.7386 13.6884 12.7809 13.7061C12.8232 13.7237 12.8686 13.7328 12.9144 13.7328C12.9603 13.7328 13.0056 13.7237 13.048 13.7061C13.0903 13.6884 13.1287 13.6626 13.1609 13.6301L13.647 13.144C13.7104 13.0813 13.7473 12.9965 13.7499 12.9073C13.7524 12.818 13.7206 12.7313 13.6609 12.6649ZM6.12726 9.58206C5.44062 9.58206 4.7694 9.37845 4.19848 8.99697C3.62757 8.6155 3.18259 8.07329 2.91982 7.43892C2.65706 6.80455 2.58831 6.10651 2.72226 5.43306C2.85622 4.75962 3.18687 4.14102 3.67239 3.65549C4.15792 3.16997 4.77652 2.83932 5.44996 2.70536C6.12341 2.57141 6.82145 2.64016 7.45582 2.90292C8.09019 3.16569 8.6324 3.61067 9.01388 4.18158C9.39535 4.7525 9.59896 5.42372 9.59896 6.11036C9.59896 7.03111 9.2332 7.91415 8.58212 8.56522C7.93105 9.21629 7.04801 9.58206 6.12726 9.58206Z" fill="white"/>
</svg>
