<svg width="20" height="20" viewBox="0 0 20 20" fill="none" xmlns="http://www.w3.org/2000/svg">
<path d="M18.3327 8.26667V17.0833C18.3327 17.1938 18.2888 17.2998 18.2106 17.378C18.1325 17.4561 18.0265 17.5 17.916 17.5H17.291C17.1805 17.5 17.0745 17.4561 16.9964 17.378C16.9183 17.2998 16.8744 17.1938 16.8744 17.0833V9.66667L10.9244 13.95C10.7181 14.091 10.4742 14.1665 10.2244 14.1667H9.77435C9.52453 14.1665 9.28058 14.091 9.07435 13.95L1.84935 8.74167C1.79287 8.70437 1.74654 8.65362 1.71454 8.59398C1.68254 8.53434 1.66586 8.46768 1.66602 8.4V8.26667C1.66586 8.19898 1.68254 8.13232 1.71454 8.07268C1.74654 8.01304 1.79287 7.96229 1.84935 7.925L9.07435 2.71667C9.28058 2.57567 9.52453 2.50016 9.77435 2.5H10.2244C10.4742 2.50016 10.7181 2.57567 10.9244 2.71667L18.1494 7.925C18.2058 7.96229 18.2522 8.01304 18.2842 8.07268C18.3162 8.13232 18.3328 8.19898 18.3327 8.26667V8.26667ZM10.2244 15.625H9.77435C9.21733 15.6212 8.67434 15.4499 8.21602 15.1333L4.99935 12.8083V14.1667C4.99935 16.0083 7.24102 17.5 9.99935 17.5C12.7577 17.5 14.9994 16.0083 14.9994 14.1667V12.8083L11.7494 15.15C11.3003 15.458 10.7689 15.6236 10.2244 15.625V15.625Z" fill="#4A0A52"/>
</svg>
